<svg width="48" height="48" viewBox="0 0 48 48" fill="none" xmlns="http://www.w3.org/2000/svg">
<path d="M48 24C48 37.2548 37.2548 48 24 48C10.7452 48 0 37.2548 0 24C0 10.7452 10.7452 0 24 0C37.2548 0 48 10.7452 48 24Z" fill="#EEB822"/>
<path d="M26.3333 20.2583V18.8583C26.975 18.5861 27.6312 18.3819 28.3021 18.2458C28.9729 18.1097 29.6778 18.0417 30.4167 18.0417C30.9222 18.0417 31.4181 18.0806 31.9042 18.1583C32.3903 18.2361 32.8667 18.3333 33.3333 18.45V19.7333C32.8667 19.5583 32.3951 19.4271 31.9187 19.3396C31.4424 19.2521 30.9417 19.2083 30.4167 19.2083C29.6778 19.2083 28.9681 19.3007 28.2875 19.4854C27.6069 19.6701 26.9556 19.9278 26.3333 20.2583ZM26.3333 26.675V25.2458C26.975 24.9833 27.6312 24.7865 28.3021 24.6552C28.9729 24.524 29.6778 24.4583 30.4167 24.4583C30.9222 24.4583 31.4181 24.4972 31.9042 24.575C32.3903 24.6528 32.8667 24.75 33.3333 24.8667V26.15C32.8667 25.975 32.3951 25.8437 31.9187 25.7562C31.4424 25.6687 30.9417 25.625 30.4167 25.625C29.6778 25.625 28.9681 25.7125 28.2875 25.8875C27.6069 26.0625 26.9556 26.325 26.3333 26.675ZM26.3333 23.4667V22.0667C26.975 21.7944 27.6312 21.5903 28.3021 21.4542C28.9729 21.3181 29.6778 21.25 30.4167 21.25C30.9222 21.25 31.4181 21.2889 31.9042 21.3667C32.3903 21.4444 32.8667 21.5417 33.3333 21.6583V22.9417C32.8667 22.7667 32.3951 22.6354 31.9187 22.5479C31.4424 22.4604 30.9417 22.4167 30.4167 22.4167C29.6778 22.4167 28.9681 22.509 28.2875 22.6937C27.6069 22.8785 26.9556 23.1361 26.3333 23.4667ZM17.2333 28.25C18.275 28.25 19.2888 28.3715 20.2748 28.6146C21.2611 28.8576 22.2306 29.2222 23.1833 29.7083V17.2542C22.3083 16.6708 21.3592 16.2187 20.3361 15.8979C19.3129 15.5771 18.2787 15.4167 17.2333 15.4167C16.4944 15.4167 15.7701 15.509 15.0604 15.6937C14.3507 15.8785 13.6361 16.1069 12.9167 16.3792V29.0375C13.5194 28.7653 14.2049 28.566 14.9729 28.4396C15.741 28.3132 16.4944 28.25 17.2333 28.25ZM24.9333 29.7083C25.9056 29.2222 26.8583 28.8576 27.7917 28.6146C28.725 28.3715 29.7167 28.25 30.7667 28.25C31.5056 28.25 32.2687 28.3083 33.0562 28.425C33.8437 28.5417 34.5194 28.6972 35.0833 28.8917V16.3792C34.4222 16.0486 33.724 15.8056 32.9886 15.65C32.2532 15.4944 31.5126 15.4167 30.7667 15.4167C29.7167 15.4167 28.7007 15.5771 27.7187 15.8979C26.7368 16.2187 25.8083 16.6708 24.9333 17.2542V29.7083ZM24.0583 32.3333C23.0667 31.5944 21.9875 31.0257 20.8208 30.6271C19.6542 30.2285 18.4583 30.0292 17.2333 30.0292C16.5228 30.0292 15.8251 30.1167 15.14 30.2917C14.455 30.4667 13.7722 30.6806 13.0917 30.9333C12.6425 31.1472 12.2094 31.1181 11.7923 30.8458C11.3752 30.5736 11.1667 30.1847 11.1667 29.6792V16.175C11.1667 15.8833 11.2347 15.616 11.3708 15.3729C11.5069 15.1299 11.7111 14.9403 11.9833 14.8042C12.8 14.4153 13.6496 14.1285 14.5322 13.9437C15.415 13.759 16.3154 13.6667 17.2333 13.6667C18.4583 13.6667 19.6493 13.8319 20.8062 14.1625C21.9632 14.4931 23.0472 14.9986 24.0583 15.6792C25.05 14.9986 26.1146 14.4931 27.2521 14.1625C28.3896 13.8319 29.5611 13.6667 30.7667 13.6667C31.678 13.6667 32.5718 13.759 33.448 13.9437C34.3243 14.1285 35.1708 14.4153 35.9875 14.8042C36.2597 14.9403 36.4687 15.1299 36.6146 15.3729C36.7604 15.616 36.8333 15.8833 36.8333 16.175V29.6792C36.8333 30.2215 36.6146 30.6342 36.1771 30.9173C35.7396 31.2002 35.3069 31.2056 34.8792 30.9333C34.2181 30.6611 33.545 30.4424 32.86 30.2771C32.1749 30.1118 31.4772 30.0292 30.7667 30.0292C29.5417 30.0292 28.3653 30.2333 27.2375 30.6417C26.1097 31.05 25.05 31.6139 24.0583 32.3333Z" fill="#E3E3E3"/>
</svg>
