<svg width="48" height="48" viewBox="0 0 48 48" fill="none" xmlns="http://www.w3.org/2000/svg">
<circle cx="24" cy="24" r="24" fill="#EE8213"/>
<path d="M13.1111 38V22.0167C12.2556 22.0167 11.5231 21.712 10.9139 21.1028C10.3046 20.4935 10 19.7611 10 18.9056V10.8944C10 10.6611 10.0907 10.4537 10.2722 10.2722C10.4537 10.0907 10.6611 10 10.8944 10C11.1278 10 11.3417 10.0907 11.5361 10.2722C11.7306 10.4537 11.8278 10.6611 11.8278 10.8944V16.4167H13.3833V10.8944C13.3833 10.6611 13.4741 10.4537 13.6556 10.2722C13.837 10.0907 14.0444 10 14.2778 10C14.5111 10 14.7185 10.0907 14.9 10.2722C15.0815 10.4537 15.1722 10.6611 15.1722 10.8944V16.4167H16.7278V10.8944C16.7278 10.6611 16.825 10.4537 17.0194 10.2722C17.2139 10.0907 17.4278 10 17.6611 10C17.8944 10 18.1019 10.0907 18.2833 10.2722C18.4648 10.4537 18.5556 10.6611 18.5556 10.8944V18.9056C18.5556 19.7611 18.2509 20.4935 17.6417 21.1028C17.0324 21.712 16.3 22.0167 15.4444 22.0167V38H13.1111ZM24 38V21.9389C22.937 21.3426 22.1333 20.5389 21.5889 19.5278C21.0444 18.5167 20.7722 17.35 20.7722 16.0278C20.7722 14.4722 21.1676 13.0787 21.9583 11.8472C22.7491 10.6157 23.8315 10 25.2056 10C26.5796 10 27.662 10.6157 28.4528 11.8472C29.2435 13.0787 29.6389 14.4722 29.6389 16.0278C29.6389 17.35 29.3537 18.5167 28.7833 19.5278C28.213 20.5389 27.3963 21.3426 26.3333 21.9389V38H24ZM32.3222 38V10C33.8259 10.1296 35.1481 10.7194 36.2889 11.7694C37.4296 12.8194 38 14.1222 38 15.6778V25.1667H34.6556V38H32.3222Z" fill="#E3E3E3"/>
</svg>
