<svg width="48" height="48" viewBox="0 0 48 48" fill="none" xmlns="http://www.w3.org/2000/svg">
<circle cx="24" cy="24" r="24" fill="#8B5CF6"/>
<path d="M20.36 29.5688L24 26.7844L27.64 29.5688L26.24 25.1688L29.67 22.35H25.47L24 18.1563L22.53 22.35H18.33L21.76 25.1688L20.36 29.5688ZM12.1 35C11.5167 35 11.0208 34.7995 10.6125 34.3984C10.2042 33.9974 10 33.5104 10 32.9375V28.4C10 28.1708 10.0642 27.9703 10.1925 27.7984C10.3208 27.6266 10.49 27.5063 10.7 27.4375C11.4233 27.1854 11.9892 26.7328 12.3975 26.0797C12.8058 25.4266 13.01 24.7333 13.01 24C13.01 23.2896 12.8058 22.6021 12.3975 21.9375C11.9892 21.2729 11.4233 20.8146 10.7 20.5625C10.49 20.4938 10.3208 20.3734 10.1925 20.2016C10.0642 20.0297 10 19.8292 10 19.6V15.0625C10 14.4896 10.2042 14.0026 10.6125 13.6016C11.0208 13.2005 11.5167 13 12.1 13H35.9C36.4833 13 36.9792 13.2005 37.3875 13.6016C37.7958 14.0026 38 14.4896 38 15.0625V19.6C38 19.8292 37.9358 20.0297 37.8075 20.2016C37.6792 20.3734 37.51 20.4938 37.3 20.5625C36.5767 20.8146 36.0108 21.2729 35.6025 21.9375C35.1942 22.6021 34.99 23.2896 34.99 24C34.99 24.7333 35.1942 25.4266 35.6025 26.0797C36.0108 26.7328 36.5767 27.1854 37.3 27.4375C37.51 27.5063 37.6792 27.6266 37.8075 27.7984C37.9358 27.9703 38 28.1708 38 28.4V32.9375C38 33.5104 37.7958 33.9974 37.3875 34.3984C36.9792 34.7995 36.4833 35 35.9 35H12.1ZM12.1 32.9375H35.9V29.1906C35.0133 28.5948 34.29 27.85 33.73 26.9563C33.17 26.0625 32.89 25.0771 32.89 24C32.89 22.9229 33.17 21.9375 33.73 21.0438C34.29 20.15 35.0133 19.4052 35.9 18.8094V15.0625H12.1V18.8094C13.01 19.4052 13.7392 20.15 14.2875 21.0438C14.8358 21.9375 15.11 22.9229 15.11 24C15.11 25.0771 14.8358 26.0625 14.2875 26.9563C13.7392 27.85 13.01 28.5948 12.1 29.1906V32.9375Z" fill="#E3E3E3"/>
</svg>
