<svg width="48" height="48" viewBox="0 0 48 48" fill="none" xmlns="http://www.w3.org/2000/svg">
<circle cx="24" cy="24" r="24" fill="#2569B1"/>
<path d="M15.8333 32.05V33.625C15.8333 33.8729 15.7495 34.0807 15.5819 34.2483C15.4141 34.4161 15.2063 34.5 14.9583 34.5H14.375C14.1271 34.5 13.9193 34.4161 13.7517 34.2483C13.5839 34.0807 13.5 33.8729 13.5 33.625V24.175L15.9792 16.7083C16.0764 16.4361 16.2368 16.2222 16.4604 16.0667C16.684 15.9111 16.9417 15.8333 17.2333 15.8333H30.7667C31.0583 15.8333 31.316 15.9111 31.5396 16.0667C31.7632 16.2222 31.9236 16.4361 32.0208 16.7083L34.5 24.175V33.625C34.5 33.8729 34.4162 34.0807 34.2486 34.2483C34.0808 34.4161 33.8729 34.5 33.625 34.5H33.0125C32.7597 34.5 32.5556 34.4161 32.4 34.2483C32.2444 34.0807 32.1667 33.8729 32.1667 33.625V32.05H15.8333ZM15.9208 22.425H32.0792L30.475 17.5833H17.525L15.9208 22.425ZM18.3347 28.8417C18.7866 28.8417 19.1632 28.6885 19.4646 28.3823C19.766 28.076 19.9167 27.7042 19.9167 27.2667C19.9167 26.813 19.7635 26.4273 19.4573 26.1096C19.151 25.7921 18.7792 25.6333 18.3417 25.6333C17.888 25.6333 17.5023 25.7914 17.1846 26.1076C16.8671 26.4239 16.7083 26.808 16.7083 27.2597C16.7083 27.7116 16.8664 28.0882 17.1826 28.3896C17.4989 28.691 17.883 28.8417 18.3347 28.8417ZM29.6875 28.8417C30.1411 28.8417 30.5268 28.6885 30.8445 28.3823C31.1621 28.076 31.3208 27.7042 31.3208 27.2667C31.3208 26.813 31.1627 26.4273 30.8466 26.1096C30.5302 25.7921 30.1462 25.6333 29.6945 25.6333C29.2426 25.6333 28.866 25.7914 28.5646 26.1076C28.2632 26.4239 28.1125 26.808 28.1125 27.2597C28.1125 27.7116 28.2656 28.0882 28.5719 28.3896C28.8781 28.691 29.25 28.8417 29.6875 28.8417ZM15.25 30.3H32.75V24.175H15.25V30.3Z" fill="#E3E3E3"/>
</svg>
