<svg width="48" height="48" viewBox="0 0 48 48" fill="none" xmlns="http://www.w3.org/2000/svg">
<path d="M48 24C48 37.2548 37.2548 48 24 48C10.7452 48 0 37.2548 0 24C0 10.7452 10.7452 0 24 0C37.2548 0 48 10.7452 48 24Z" fill="#2F9133"/>
<path d="M20.85 21.7458C20.0333 20.9292 19.625 19.8792 19.625 18.5958C19.625 17.3125 20.0333 16.2625 20.85 15.4458C21.6667 14.6292 22.7167 14.2208 24 14.2208C25.2833 14.2208 26.3333 14.6292 27.15 15.4458C27.9667 16.2625 28.375 17.3125 28.375 18.5958C28.375 19.8792 27.9667 20.9292 27.15 21.7458C26.3333 22.5625 25.2833 22.9708 24 22.9708C22.7167 22.9708 21.6667 22.5625 20.85 21.7458ZM14.6667 32.3333V29.5917C14.6667 28.8528 14.8514 28.2208 15.2208 27.6958C15.5903 27.1708 16.0667 26.7722 16.65 26.5C17.9528 25.9167 19.2021 25.4792 20.3979 25.1875C21.5938 24.8958 22.7944 24.75 24 24.75C25.2056 24.75 26.4014 24.9007 27.5875 25.2021C28.7736 25.5035 30.0181 25.9361 31.3208 26.5C31.9236 26.7722 32.4097 27.1708 32.7792 27.6958C33.1486 28.2208 33.3333 28.8528 33.3333 29.5917V32.3333H14.6667ZM16.4167 30.5833H31.5833V29.5917C31.5833 29.2806 31.491 28.984 31.3063 28.7021C31.1215 28.4201 30.8931 28.2111 30.6208 28.075C29.3764 27.4722 28.2389 27.059 27.2083 26.8354C26.1778 26.6118 25.1083 26.5 24 26.5C22.8917 26.5 21.8125 26.6118 20.7625 26.8354C19.7125 27.059 18.575 27.4722 17.35 28.075C17.0778 28.2111 16.8542 28.4201 16.6792 28.7021C16.5042 28.984 16.4167 29.2806 16.4167 29.5917V30.5833ZM25.8813 20.4771C26.3771 19.9812 26.625 19.3542 26.625 18.5958C26.625 17.8375 26.3771 17.2104 25.8813 16.7146C25.3854 16.2187 24.7583 15.9708 24 15.9708C23.2417 15.9708 22.6146 16.2187 22.1188 16.7146C21.6229 17.2104 21.375 17.8375 21.375 18.5958C21.375 19.3542 21.6229 19.9812 22.1188 20.4771C22.6146 20.9729 23.2417 21.2208 24 21.2208C24.7583 21.2208 25.3854 20.9729 25.8813 20.4771Z" fill="#E3E3E3"/>
</svg>
